<svg width="40" height="14" viewBox="0 0 40 14" fill="none" xmlns="http://www.w3.org/2000/svg">
<path d="M2.5639 0.346069H7.69073L5.12683 4.87583H9.4L2.5639 13.029L4.2722 7.59387H0L2.5639 0.346069ZM13.8702 9.64656H11.959L13.5922 2.31485H19.0244L18.6576 3.96363H15.1356L14.8917 5.10705H18.3249L17.958 6.75583H14.5141L13.8702 9.64656ZM23.1073 9.77924C20.8302 9.77924 19.7083 8.70119 19.7083 7.16265C19.7083 7.04168 19.7415 6.789 19.7639 6.67875L20.7415 2.31485H22.6849L21.719 6.63485C21.7073 6.69046 21.6859 6.81046 21.6859 6.94314C21.6966 7.54802 22.1639 8.13046 23.1073 8.13046C24.1298 8.13046 24.6517 7.49241 24.84 6.63485L25.8068 2.31485H27.7395L26.7737 6.66802C26.3737 8.44851 25.3961 9.77924 23.1073 9.77924ZM32.9785 9.64656H28.0907L29.7229 2.31485H31.6341L30.3785 7.99778H33.3444L32.9785 9.64656ZM39.4937 9.64656H34.6059L36.239 2.31485H38.1502L36.8946 7.99778H39.8605L39.4937 9.64656Z" fill="#00A650"/>
</svg>
